<mxfile host="app.diagrams.net" modified="2024-05-26T10:14:46.257Z" agent="Mozilla/5.0 (Macintosh; Intel Mac OS X 10_15_7) AppleWebKit/537.36 (KHTML, like Gecko) Chrome/125.0.0.0 Safari/537.36" etag="yZ1dzuLlijhArZxVCZqL" version="24.4.8" type="device">
  <diagram name="Page-1" id="pf5hJ7B2kvcnTJJsgitv">
    <mxGraphModel dx="709" dy="1444" grid="1" gridSize="10" guides="1" tooltips="1" connect="1" arrows="1" fold="1" page="1" pageScale="1" pageWidth="827" pageHeight="1169" math="0" shadow="0">
      <root>
        <mxCell id="0" />
        <mxCell id="1" parent="0" />
        <mxCell id="aiXChwAWagnakHHyUVIK-2" value="" style="rounded=1;whiteSpace=wrap;html=1;dashed=1;dashPattern=8 8;arcSize=6;" vertex="1" parent="1">
          <mxGeometry x="230" y="230" width="410" height="210" as="geometry" />
        </mxCell>
        <mxCell id="aiXChwAWagnakHHyUVIK-20" value="" style="edgeStyle=orthogonalEdgeStyle;rounded=0;orthogonalLoop=1;jettySize=auto;html=1;" edge="1" parent="1" source="aiXChwAWagnakHHyUVIK-3" target="aiXChwAWagnakHHyUVIK-19">
          <mxGeometry relative="1" as="geometry" />
        </mxCell>
        <mxCell id="aiXChwAWagnakHHyUVIK-3" value="" style="rounded=1;whiteSpace=wrap;html=1;arcSize=6;" vertex="1" parent="1">
          <mxGeometry x="420" y="250" width="204" height="170" as="geometry" />
        </mxCell>
        <mxCell id="aiXChwAWagnakHHyUVIK-6" value="" style="group" vertex="1" connectable="0" parent="1">
          <mxGeometry x="450" y="269" width="145" height="39" as="geometry" />
        </mxCell>
        <mxCell id="aiXChwAWagnakHHyUVIK-4" value="" style="rounded=1;whiteSpace=wrap;html=1;arcSize=6;" vertex="1" parent="aiXChwAWagnakHHyUVIK-6">
          <mxGeometry x="5" width="140" height="34" as="geometry" />
        </mxCell>
        <mxCell id="aiXChwAWagnakHHyUVIK-5" value="Controllers" style="rounded=1;whiteSpace=wrap;html=1;arcSize=6;" vertex="1" parent="aiXChwAWagnakHHyUVIK-6">
          <mxGeometry y="5" width="140" height="34" as="geometry" />
        </mxCell>
        <mxCell id="aiXChwAWagnakHHyUVIK-7" value="" style="group" vertex="1" connectable="0" parent="1">
          <mxGeometry x="450" y="315" width="145" height="39" as="geometry" />
        </mxCell>
        <mxCell id="aiXChwAWagnakHHyUVIK-8" value="" style="rounded=1;whiteSpace=wrap;html=1;arcSize=6;" vertex="1" parent="aiXChwAWagnakHHyUVIK-7">
          <mxGeometry x="5" width="140" height="34" as="geometry" />
        </mxCell>
        <mxCell id="aiXChwAWagnakHHyUVIK-9" value="Services" style="rounded=1;whiteSpace=wrap;html=1;arcSize=6;" vertex="1" parent="aiXChwAWagnakHHyUVIK-7">
          <mxGeometry y="5" width="140" height="34" as="geometry" />
        </mxCell>
        <mxCell id="aiXChwAWagnakHHyUVIK-10" value="" style="group" vertex="1" connectable="0" parent="1">
          <mxGeometry x="450" y="361" width="145" height="39" as="geometry" />
        </mxCell>
        <mxCell id="aiXChwAWagnakHHyUVIK-11" value="" style="rounded=1;whiteSpace=wrap;html=1;arcSize=6;" vertex="1" parent="aiXChwAWagnakHHyUVIK-10">
          <mxGeometry x="5" width="140" height="34" as="geometry" />
        </mxCell>
        <mxCell id="aiXChwAWagnakHHyUVIK-12" value="View Models" style="rounded=1;whiteSpace=wrap;html=1;arcSize=6;" vertex="1" parent="aiXChwAWagnakHHyUVIK-10">
          <mxGeometry y="5" width="140" height="34" as="geometry" />
        </mxCell>
        <mxCell id="aiXChwAWagnakHHyUVIK-18" value="Application Layer" style="text;html=1;align=center;verticalAlign=middle;whiteSpace=wrap;rounded=0;" vertex="1" parent="1">
          <mxGeometry x="270" y="322" width="101" height="30" as="geometry" />
        </mxCell>
        <mxCell id="aiXChwAWagnakHHyUVIK-19" value="" style="whiteSpace=wrap;html=1;rounded=1;arcSize=6;" vertex="1" parent="1">
          <mxGeometry x="418" y="100" width="207" height="110" as="geometry" />
        </mxCell>
        <mxCell id="aiXChwAWagnakHHyUVIK-21" value="" style="group" vertex="1" connectable="0" parent="1">
          <mxGeometry x="450" y="112" width="145" height="39" as="geometry" />
        </mxCell>
        <mxCell id="aiXChwAWagnakHHyUVIK-22" value="" style="rounded=1;whiteSpace=wrap;html=1;arcSize=6;" vertex="1" parent="aiXChwAWagnakHHyUVIK-21">
          <mxGeometry x="5" width="140" height="34" as="geometry" />
        </mxCell>
        <mxCell id="aiXChwAWagnakHHyUVIK-23" value="Web UI" style="rounded=1;whiteSpace=wrap;html=1;arcSize=6;" vertex="1" parent="aiXChwAWagnakHHyUVIK-21">
          <mxGeometry y="5" width="140" height="34" as="geometry" />
        </mxCell>
        <mxCell id="aiXChwAWagnakHHyUVIK-24" value="" style="group" vertex="1" connectable="0" parent="1">
          <mxGeometry x="450" y="158" width="145" height="39" as="geometry" />
        </mxCell>
        <mxCell id="aiXChwAWagnakHHyUVIK-25" value="" style="rounded=1;whiteSpace=wrap;html=1;arcSize=6;" vertex="1" parent="aiXChwAWagnakHHyUVIK-24">
          <mxGeometry x="5" width="140" height="34" as="geometry" />
        </mxCell>
        <mxCell id="aiXChwAWagnakHHyUVIK-26" value="Frontend Framework" style="rounded=1;whiteSpace=wrap;html=1;arcSize=6;" vertex="1" parent="aiXChwAWagnakHHyUVIK-24">
          <mxGeometry y="5" width="140" height="34" as="geometry" />
        </mxCell>
        <mxCell id="aiXChwAWagnakHHyUVIK-28" value="Presentation Layer" style="text;html=1;align=center;verticalAlign=middle;whiteSpace=wrap;rounded=0;" vertex="1" parent="1">
          <mxGeometry x="265" y="128" width="110" height="30" as="geometry" />
        </mxCell>
        <mxCell id="aiXChwAWagnakHHyUVIK-29" value="" style="rounded=1;whiteSpace=wrap;html=1;dashed=1;dashPattern=8 8;arcSize=6;" vertex="1" parent="1">
          <mxGeometry x="230" y="470" width="410" height="190" as="geometry" />
        </mxCell>
        <mxCell id="aiXChwAWagnakHHyUVIK-45" value="" style="edgeStyle=orthogonalEdgeStyle;rounded=0;orthogonalLoop=1;jettySize=auto;html=1;entryX=0.489;entryY=0.996;entryDx=0;entryDy=0;entryPerimeter=0;" edge="1" parent="1" source="aiXChwAWagnakHHyUVIK-30" target="aiXChwAWagnakHHyUVIK-3">
          <mxGeometry relative="1" as="geometry" />
        </mxCell>
        <mxCell id="aiXChwAWagnakHHyUVIK-30" value="" style="rounded=1;whiteSpace=wrap;html=1;arcSize=6;" vertex="1" parent="1">
          <mxGeometry x="418" y="493" width="204" height="140" as="geometry" />
        </mxCell>
        <mxCell id="aiXChwAWagnakHHyUVIK-31" value="" style="group" vertex="1" connectable="0" parent="1">
          <mxGeometry x="450" y="518" width="145" height="39" as="geometry" />
        </mxCell>
        <mxCell id="aiXChwAWagnakHHyUVIK-32" value="" style="rounded=1;whiteSpace=wrap;html=1;arcSize=6;" vertex="1" parent="aiXChwAWagnakHHyUVIK-31">
          <mxGeometry x="5" width="140" height="34" as="geometry" />
        </mxCell>
        <mxCell id="aiXChwAWagnakHHyUVIK-33" value="Repositories" style="rounded=1;whiteSpace=wrap;html=1;arcSize=6;" vertex="1" parent="aiXChwAWagnakHHyUVIK-31">
          <mxGeometry y="5" width="140" height="34" as="geometry" />
        </mxCell>
        <mxCell id="aiXChwAWagnakHHyUVIK-34" value="" style="group" vertex="1" connectable="0" parent="1">
          <mxGeometry x="450" y="564" width="145" height="39" as="geometry" />
        </mxCell>
        <mxCell id="aiXChwAWagnakHHyUVIK-35" value="" style="rounded=1;whiteSpace=wrap;html=1;arcSize=6;" vertex="1" parent="aiXChwAWagnakHHyUVIK-34">
          <mxGeometry x="5" width="140" height="34" as="geometry" />
        </mxCell>
        <mxCell id="aiXChwAWagnakHHyUVIK-36" value="API Clients" style="rounded=1;whiteSpace=wrap;html=1;arcSize=6;" vertex="1" parent="aiXChwAWagnakHHyUVIK-34">
          <mxGeometry y="5" width="140" height="34" as="geometry" />
        </mxCell>
        <mxCell id="aiXChwAWagnakHHyUVIK-43" value="Integration Layer" style="text;html=1;align=center;verticalAlign=middle;whiteSpace=wrap;rounded=0;" vertex="1" parent="1">
          <mxGeometry x="270" y="554" width="101" height="30" as="geometry" />
        </mxCell>
      </root>
    </mxGraphModel>
  </diagram>
</mxfile>
